<svg aria-hidden="true" style="position: absolute; width: 0; height: 0; overflow: hidden;" version="1.1" xmlns="http://www.w3.org/2000/svg" xmlns:xlink="http://www.w3.org/1999/xlink">
<defs>
<symbol id="icon-web-logo" viewBox="0 0 50 32">
<path fill="#fe2401" style="fill: var(--color1, #fe2401)" d="M10.147 4.571l18.424 6.672v3.212l-2.632 1.236v-2.718l-15.792-5.683v1.977l13.16 4.942v2.718l-13.16 5.931-2.961-0.988v-4.942l2.961 0.988v1.977h0.329l8.883-4.201v-0.247l-12.173-4.695v-4.695l2.961-1.483z"></path>
<path fill="#fe2401" style="fill: var(--color1, #fe2401)" d="M6.857 12.479l8.883 2.965v0.247l-2.632 1.236h-0.658l-5.593-1.977v-2.471z"></path>
<path fill="none" stroke="#000" style="stroke: var(--color2, #000)" stroke-linejoin="miter" stroke-linecap="butt" stroke-miterlimit="4" stroke-width="0.5714" d="M10.147 4.571l18.424 6.672v3.212l-2.632 1.236v-2.718l-15.792-5.683v1.977l13.16 4.942v2.718l-13.16 5.931-2.961-0.988v-4.942l2.961 0.988v1.977h0.329l8.883-4.201v-0.247l-12.173-4.695v-4.695l2.961-1.483z"></path>
<path fill="none" stroke="#000" style="stroke: var(--color2, #000)" stroke-linejoin="miter" stroke-linecap="butt" stroke-miterlimit="4" stroke-width="0.5714" d="M6.857 12.479l8.883 2.965v0.247l-2.632 1.236h-0.658l-5.593-1.977v-2.471z"></path>
<path fill="#f1efef" style="fill: var(--color3, #f1efef)" d="M29.261 21.793v0.666h-2.588v-0.666h2.588zM26.911 17.584v4.875h-0.84v-4.875h0.84zM28.923 19.62v0.656h-2.25v-0.656h2.25zM29.244 17.584v0.67h-2.571v-0.67h2.571zM31.9 21.478c0-0.080-0.020-0.153-0.060-0.218-0.040-0.067-0.117-0.127-0.231-0.181-0.112-0.054-0.277-0.103-0.496-0.147-0.192-0.042-0.368-0.093-0.529-0.151-0.159-0.060-0.295-0.133-0.409-0.218s-0.202-0.185-0.264-0.301c-0.063-0.116-0.094-0.25-0.094-0.402 0-0.147 0.032-0.287 0.097-0.419s0.157-0.248 0.278-0.348c0.121-0.1 0.267-0.18 0.439-0.238 0.174-0.058 0.368-0.087 0.583-0.087 0.304 0 0.564 0.051 0.78 0.154 0.219 0.1 0.386 0.238 0.502 0.412 0.116 0.172 0.174 0.366 0.174 0.583h-0.807c0-0.096-0.025-0.185-0.074-0.268-0.047-0.085-0.118-0.153-0.214-0.204-0.096-0.054-0.216-0.080-0.362-0.080-0.138 0-0.253 0.022-0.345 0.067-0.089 0.042-0.156 0.098-0.201 0.167-0.042 0.069-0.064 0.145-0.064 0.228 0 0.060 0.011 0.115 0.034 0.164 0.025 0.047 0.065 0.090 0.121 0.131 0.056 0.038 0.132 0.074 0.228 0.107 0.098 0.034 0.221 0.066 0.368 0.097 0.277 0.058 0.515 0.133 0.713 0.224 0.201 0.089 0.355 0.205 0.462 0.348 0.107 0.141 0.161 0.319 0.161 0.536 0 0.161-0.035 0.308-0.104 0.442-0.067 0.132-0.165 0.247-0.295 0.345-0.13 0.096-0.285 0.171-0.465 0.224-0.179 0.054-0.38 0.080-0.603 0.080-0.328 0-0.606-0.058-0.834-0.174-0.228-0.118-0.401-0.269-0.519-0.452-0.116-0.185-0.174-0.377-0.174-0.576h0.78c0.009 0.15 0.050 0.269 0.124 0.358 0.076 0.087 0.17 0.151 0.281 0.191 0.114 0.038 0.231 0.057 0.352 0.057 0.145 0 0.267-0.019 0.365-0.057 0.098-0.040 0.173-0.094 0.224-0.161 0.051-0.069 0.077-0.147 0.077-0.234zM36.041 22.459v0.63h-3.054v-0.63h3.054zM38.65 21.605v-2.769h0.81v3.623h-0.763l-0.047-0.854zM38.763 20.852l0.271-0.007c0 0.243-0.027 0.468-0.080 0.673-0.054 0.203-0.136 0.381-0.248 0.532-0.112 0.15-0.254 0.267-0.429 0.352-0.174 0.083-0.383 0.124-0.626 0.124-0.176 0-0.338-0.026-0.486-0.077s-0.275-0.131-0.382-0.238c-0.105-0.107-0.186-0.247-0.244-0.419s-0.087-0.377-0.087-0.616v-2.34h0.807v2.347c0 0.132 0.016 0.242 0.047 0.331 0.031 0.087 0.074 0.157 0.127 0.211s0.116 0.092 0.188 0.114c0.071 0.022 0.147 0.033 0.228 0.033 0.23 0 0.411-0.045 0.542-0.134 0.134-0.092 0.229-0.214 0.285-0.368 0.058-0.154 0.087-0.327 0.087-0.519zM42.329 21.732v-1.728c0-0.129-0.023-0.241-0.070-0.335s-0.118-0.166-0.214-0.218c-0.094-0.051-0.212-0.077-0.355-0.077-0.132 0-0.246 0.022-0.342 0.067s-0.171 0.105-0.224 0.181c-0.054 0.076-0.080 0.162-0.080 0.258h-0.804c0-0.143 0.035-0.281 0.104-0.415s0.17-0.253 0.301-0.358 0.289-0.188 0.472-0.248c0.183-0.060 0.388-0.090 0.616-0.090 0.272 0 0.513 0.046 0.723 0.137 0.212 0.092 0.378 0.23 0.499 0.415 0.123 0.183 0.184 0.413 0.184 0.69v1.61c0 0.165 0.011 0.314 0.033 0.445 0.025 0.13 0.059 0.242 0.104 0.338v0.054h-0.827c-0.038-0.087-0.068-0.198-0.090-0.331-0.020-0.136-0.030-0.268-0.030-0.395zM42.446 20.256l0.007 0.499h-0.579c-0.15 0-0.281 0.015-0.395 0.044-0.114 0.027-0.209 0.067-0.285 0.12s-0.133 0.118-0.171 0.194-0.057 0.162-0.057 0.258c0 0.096 0.022 0.184 0.067 0.265 0.045 0.078 0.109 0.14 0.194 0.184 0.087 0.045 0.192 0.067 0.315 0.067 0.165 0 0.309-0.034 0.432-0.1 0.125-0.069 0.223-0.153 0.295-0.251 0.071-0.1 0.109-0.195 0.114-0.285l0.261 0.358c-0.027 0.091-0.073 0.19-0.137 0.295s-0.15 0.205-0.254 0.301c-0.103 0.094-0.227 0.171-0.372 0.231-0.143 0.060-0.308 0.090-0.496 0.090-0.237 0-0.448-0.047-0.633-0.141-0.185-0.096-0.33-0.224-0.435-0.385-0.105-0.163-0.157-0.347-0.157-0.552 0-0.192 0.036-0.362 0.107-0.509 0.074-0.15 0.181-0.275 0.321-0.375 0.143-0.1 0.317-0.176 0.522-0.228 0.205-0.054 0.44-0.080 0.703-0.080h0.633z"></path>
</symbol>
</defs>
</svg>
