<svg width="57" height="47" viewBox="0 0 57 47" fill="none" xmlns="http://www.w3.org/2000/svg">
<g filter="url(#filter0_dd_35_24)">
<g filter="url(#filter1_d_35_24)">
<path d="M14.9781 8L31.6552 16.2095V20.1622L29.2727 21.6824V18.3378L14.9781 11.3446V13.777L26.8903 19.8581V23.2027L14.9781 30.5L12.2978 29.2838V23.2027L14.9781 24.4189V26.8514H15.2759L23.3166 21.6824V21.3784L12.2978 15.6014V9.82432L14.9781 8Z" fill="#FE2401" shape-rendering="crispEdges"/>
<path d="M12 17.7297L20.0408 21.3784V21.6824L17.6583 23.2027H17.0627L12 20.7703V17.7297Z" fill="#FE2401" shape-rendering="crispEdges"/>
<path d="M14.9781 8L31.6552 16.2095V20.1622L29.2727 21.6824V18.3378L14.9781 11.3446V13.777L26.8903 19.8581V23.2027L14.9781 30.5L12.2978 29.2838V23.2027L14.9781 24.4189V26.8514H15.2759L23.3166 21.6824V21.3784L12.2978 15.6014V9.82432L14.9781 8Z" stroke="black" stroke-opacity="0.2" shape-rendering="crispEdges"/>
<path d="M12 17.7297L20.0408 21.3784V21.6824L17.6583 23.2027H17.0627L12 20.7703V17.7297Z" stroke="black" stroke-opacity="0.2" shape-rendering="crispEdges"/>
</g>
<path d="M32.9052 27.417V28H30.6406V27.417H32.9052ZM30.8486 23.7344V28H30.1132V23.7344H30.8486ZM32.6093 25.5156V26.0898H30.6406V25.5156H32.6093ZM32.8906 23.7344V24.3203H30.6406V23.7344H32.8906ZM35.2138 27.1416C35.2138 27.0713 35.1962 27.0078 35.1611 26.9512C35.1259 26.8926 35.0585 26.8398 34.9589 26.793C34.8613 26.7461 34.7167 26.7031 34.5253 26.6641C34.3574 26.627 34.2031 26.583 34.0624 26.5322C33.9238 26.4795 33.8046 26.416 33.705 26.3418C33.6054 26.2676 33.5283 26.1797 33.4736 26.0781C33.4189 25.9766 33.3915 25.8594 33.3915 25.7266C33.3915 25.5977 33.4199 25.4756 33.4765 25.3604C33.5331 25.2451 33.6142 25.1436 33.7197 25.0557C33.8251 24.9678 33.9531 24.8984 34.1035 24.8477C34.2558 24.7969 34.4257 24.7715 34.6132 24.7715C34.8788 24.7715 35.1064 24.8164 35.2958 24.9062C35.4872 24.9941 35.6337 25.1143 35.7353 25.2666C35.8369 25.417 35.8876 25.5869 35.8876 25.7764H35.1816C35.1816 25.6924 35.1601 25.6143 35.1171 25.542C35.0761 25.4678 35.0136 25.4082 34.9296 25.3633C34.8456 25.3164 34.7402 25.293 34.6132 25.293C34.4921 25.293 34.3915 25.3125 34.3115 25.3516C34.2333 25.3887 34.1747 25.4375 34.1357 25.498C34.0986 25.5586 34.08 25.625 34.08 25.6973C34.08 25.75 34.0898 25.7979 34.1093 25.8408C34.1308 25.8818 34.166 25.9199 34.2148 25.9551C34.2636 25.9883 34.33 26.0195 34.414 26.0488C34.4999 26.0781 34.6074 26.1064 34.7363 26.1338C34.9785 26.1846 35.1865 26.25 35.3603 26.3301C35.5361 26.4082 35.6708 26.5098 35.7646 26.6348C35.8583 26.7578 35.9052 26.9141 35.9052 27.1035C35.9052 27.2441 35.8749 27.373 35.8144 27.4902C35.7558 27.6055 35.6699 27.7061 35.5566 27.792C35.4433 27.876 35.3076 27.9414 35.1494 27.9883C34.9931 28.0352 34.8173 28.0586 34.622 28.0586C34.3349 28.0586 34.0917 28.0078 33.8925 27.9062C33.6933 27.8027 33.5419 27.6709 33.4384 27.5107C33.3369 27.3486 33.2861 27.1807 33.2861 27.0068H33.9687C33.9765 27.1377 34.0126 27.2422 34.0771 27.3203C34.1435 27.3965 34.2255 27.4521 34.3232 27.4873C34.4228 27.5205 34.5253 27.5371 34.6308 27.5371C34.7578 27.5371 34.8642 27.5205 34.9501 27.4873C35.0361 27.4521 35.1015 27.4053 35.1464 27.3467C35.1913 27.2861 35.2138 27.2178 35.2138 27.1416ZM38.8378 28V28.5508H36.166V28H38.8378ZM41.1201 27.2529V24.8301H41.829V28H41.1611L41.1201 27.2529ZM41.2197 26.5938L41.457 26.5879C41.457 26.8008 41.4335 26.9971 41.3867 27.1768C41.3398 27.3545 41.2675 27.5098 41.1699 27.6426C41.0722 27.7734 40.9472 27.876 40.7949 27.9502C40.6425 28.0225 40.4599 28.0586 40.247 28.0586C40.0927 28.0586 39.9511 28.0361 39.8222 27.9912C39.6933 27.9463 39.582 27.877 39.4882 27.7832C39.3964 27.6895 39.3251 27.5674 39.2744 27.417C39.2236 27.2666 39.1982 27.0869 39.1982 26.8779V24.8301H39.9042V26.8838C39.9042 26.999 39.9179 27.0957 39.9453 27.1738C39.9726 27.25 40.0097 27.3115 40.0566 27.3584C40.1035 27.4053 40.1581 27.4385 40.2206 27.458C40.2831 27.4775 40.3496 27.4873 40.4199 27.4873C40.621 27.4873 40.7792 27.4482 40.8945 27.3701C41.0117 27.29 41.0947 27.1826 41.1435 27.0479C41.1943 26.9131 41.2197 26.7617 41.2197 26.5938ZM44.3398 27.3643V25.8525C44.3398 25.7393 44.3193 25.6416 44.2783 25.5596C44.2372 25.4775 44.1747 25.4141 44.0908 25.3691C44.0087 25.3242 43.9052 25.3018 43.7802 25.3018C43.665 25.3018 43.5654 25.3213 43.4814 25.3604C43.3974 25.3994 43.332 25.4521 43.2851 25.5186C43.2382 25.585 43.2148 25.6602 43.2148 25.7441H42.5117C42.5117 25.6191 42.5419 25.498 42.6025 25.3809C42.663 25.2637 42.7509 25.1592 42.8662 25.0674C42.9814 24.9756 43.1191 24.9033 43.2792 24.8506C43.4394 24.7979 43.6191 24.7715 43.8183 24.7715C44.0566 24.7715 44.2675 24.8115 44.4511 24.8916C44.6367 24.9717 44.7822 25.0928 44.8876 25.2549C44.9951 25.415 45.0488 25.6162 45.0488 25.8584V27.2676C45.0488 27.4121 45.0585 27.542 45.0781 27.6572C45.0996 27.7705 45.1298 27.8691 45.1689 27.9531V28H44.4453C44.4121 27.9238 44.3857 27.8271 44.3662 27.71C44.3486 27.5908 44.3398 27.4756 44.3398 27.3643ZM44.4423 26.0723L44.4482 26.5088H43.9413C43.8105 26.5088 43.6953 26.5215 43.5956 26.5469C43.496 26.5703 43.413 26.6055 43.3466 26.6523C43.2802 26.6992 43.2304 26.7559 43.1972 26.8223C43.164 26.8887 43.1474 26.9639 43.1474 27.0479C43.1474 27.1318 43.1669 27.209 43.206 27.2793C43.2451 27.3477 43.3017 27.4014 43.3759 27.4404C43.4521 27.4795 43.5439 27.499 43.6513 27.499C43.7958 27.499 43.9218 27.4697 44.0292 27.4111C44.1386 27.3506 44.2246 27.2773 44.2871 27.1914C44.3496 27.1035 44.3828 27.0205 44.3867 26.9424L44.6152 27.2559C44.5917 27.3359 44.5517 27.4219 44.4951 27.5137C44.4384 27.6055 44.3642 27.6934 44.2724 27.7773C44.1826 27.8594 44.0742 27.9268 43.9472 27.9795C43.8222 28.0322 43.6777 28.0586 43.5136 28.0586C43.3066 28.0586 43.122 28.0176 42.9599 27.9355C42.7978 27.8516 42.6708 27.7393 42.579 27.5986C42.4872 27.4561 42.4413 27.2949 42.4413 27.1152C42.4413 26.9473 42.4726 26.7988 42.5351 26.6699C42.5996 26.5391 42.6933 26.4297 42.8163 26.3418C42.9413 26.2539 43.0937 26.1875 43.2734 26.1426C43.4531 26.0957 43.6581 26.0723 43.8886 26.0723H44.4423Z" fill="#F1EFEF"/>
</g>
<defs>
<filter id="filter0_dd_35_24" x="0.5" y="0.42276" width="55.6689" height="45.6422" filterUnits="userSpaceOnUse" color-interpolation-filters="sRGB">
<feFlood flood-opacity="0" result="BackgroundImageFix"/>
<feColorMatrix in="SourceAlpha" type="matrix" values="0 0 0 0 0 0 0 0 0 0 0 0 0 0 0 0 0 0 127 0" result="hardAlpha"/>
<feOffset dy="1"/>
<feGaussianBlur stdDeviation="1.5"/>
<feColorMatrix type="matrix" values="0 0 0 0 0 0 0 0 0 0 0 0 0 0 0 0 0 0 0.3 0"/>
<feBlend mode="normal" in2="BackgroundImageFix" result="effect1_dropShadow_35_24"/>
<feColorMatrix in="SourceAlpha" type="matrix" values="0 0 0 0 0 0 0 0 0 0 0 0 0 0 0 0 0 0 127 0" result="hardAlpha"/>
<feMorphology radius="3" operator="dilate" in="SourceAlpha" result="effect2_dropShadow_35_24"/>
<feOffset dy="4"/>
<feGaussianBlur stdDeviation="4"/>
<feColorMatrix type="matrix" values="0 0 0 0 0 0 0 0 0 0 0 0 0 0 0 0 0 0 0.15 0"/>
<feBlend mode="normal" in2="effect1_dropShadow_35_24" result="effect2_dropShadow_35_24"/>
<feBlend mode="normal" in="SourceGraphic" in2="effect2_dropShadow_35_24" result="shape"/>
</filter>
<filter id="filter1_d_35_24" x="7.5" y="7.42276" width="28.6552" height="31.6422" filterUnits="userSpaceOnUse" color-interpolation-filters="sRGB">
<feFlood flood-opacity="0" result="BackgroundImageFix"/>
<feColorMatrix in="SourceAlpha" type="matrix" values="0 0 0 0 0 0 0 0 0 0 0 0 0 0 0 0 0 0 127 0" result="hardAlpha"/>
<feOffset dy="4"/>
<feGaussianBlur stdDeviation="2"/>
<feComposite in2="hardAlpha" operator="out"/>
<feColorMatrix type="matrix" values="0 0 0 0 0 0 0 0 0 0 0 0 0 0 0 0 0 0 0.25 0"/>
<feBlend mode="normal" in2="BackgroundImageFix" result="effect1_dropShadow_35_24"/>
<feBlend mode="normal" in="SourceGraphic" in2="effect1_dropShadow_35_24" result="shape"/>
</filter>
</defs>
</svg>
