<svg xmlns="http://www.w3.org/2000/svg" aria-hidden="true" style="position:absolute;width:0;height:0;overflow:hidden">
  <defs>
    <symbol id="icon-bag" viewBox="0 0 32 32">
      <path stroke-linejoin="round" stroke-width="1.333" d="M4 8.4v18.933a1.335 1.335 0 0 0 1.334 1.334h21.333a1.334 1.334 0 0 0 1.334-1.334V8.4h-24z"/>
      <path stroke-linecap="round" stroke-linejoin="round" stroke-width="1.333" d="m28 8.4-3.778-5.067H7.778L4 8.4m17.037 4.4c0 2.799-2.255 5.067-5.037 5.067s-5.037-2.268-5.037-5.067"/>
    </symbol>
    <symbol id="icon-favorite" viewBox="0 0 32 32">
      <path d="M15.973 25.459c-.259 0-.515-.047-.769-.141s-.478-.237-.671-.431l-1.531-1.38c-2.373-2.156-4.467-4.252-6.28-6.289-1.815-2.036-2.723-4.153-2.723-6.351 0-1.696.576-3.12 1.728-4.272s2.576-1.728 4.272-1.728c.972 0 1.985.246 3.039.737s2.04 1.419 2.961 2.781c.922-1.363 1.909-2.29 2.961-2.781s2.065-.737 3.039-.737c1.696 0 3.12.576 4.272 1.728s1.728 2.576 1.728 4.272c0 2.248-.944 4.409-2.833 6.483s-3.956 4.128-6.203 6.163l-1.523 1.375c-.194.194-.422.337-.684.431s-.523.14-.783.141zm-.625-15.69c-.798-1.287-1.628-2.204-2.489-2.751S11.045 6.199 10 6.199c-1.333 0-2.444.444-3.333 1.333s-1.333 2-1.333 3.333c0 .985.279 1.995.836 3.029s1.306 2.096 2.245 3.181a43.336 43.336 0 0 0 3.239 3.331 449.924 449.924 0 0 0 3.808 3.505c.154.137.333.205.539.205s.385-.068.539-.205c1.32-1.202 2.59-2.371 3.809-3.507 1.22-1.134 2.299-2.244 3.239-3.329s1.687-2.147 2.244-3.181.836-2.044.836-3.029c0-1.333-.444-2.444-1.333-3.333s-2-1.333-3.333-1.333c-1.044 0-1.997.273-2.859.82s-1.692 1.462-2.489 2.749c-.071.12-.166.21-.285.269s-.241.089-.367.089c-.125 0-.248-.03-.367-.089s-.214-.149-.284-.269z"/>
    </symbol>
    <symbol id="icon-search" viewBox="0 0 32 32">
      <path d="M15 7.36c-.265 0-.52.101-.707.281S14 8.065 14 8.32s.105.499.293.679c.187.18.442.281.707.281 1.68 0 3.291.641 4.478 1.781s1.855 2.687 1.855 4.299c0 .255.105.499.293.679s.442.281.707.281.52-.101.707-.281a.939.939 0 0 0 .293-.679c0-1.051-.216-2.091-.634-3.062s-1.033-1.853-1.807-2.596c-.774-.743-1.693-1.332-2.704-1.734s-2.095-.609-3.189-.609z"/>
      <path d="M2.667 15.359C2.667 8.82 8.19 3.52 15 3.52s12.333 5.299 12.333 11.837c.006 2.81-1.036 5.53-2.936 7.667l4.641 4.454a.95.95 0 0 1 .305.682.932.932 0 0 1-.292.687 1.017 1.017 0 0 1-.715.282 1.023 1.023 0 0 1-.711-.293l-4.643-4.456c-2.226 1.821-5.057 2.819-7.983 2.813-6.811 0-12.333-5.298-12.333-11.836zM15 5.44c-1.371-.021-2.732.22-4.005.709S8.564 7.365 7.587 8.288c-.977.923-1.753 2.023-2.283 3.237a9.573 9.573 0 0 0 0 7.666 9.897 9.897 0 0 0 2.283 3.237c.977.923 2.136 1.65 3.408 2.139s2.634.73 4.005.709c1.371.021 2.732-.22 4.005-.709s2.431-1.216 3.408-2.139c.977-.923 1.753-2.023 2.283-3.237a9.573 9.573 0 0 0 0-7.666c-.529-1.214-1.306-2.314-2.283-3.237s-2.136-1.65-3.408-2.139A10.716 10.716 0 0 0 15 5.44z"/>
    </symbol>
    <symbol id="icon-mob_menu-rounded" viewBox="0 0 32 32">
      <path d="M5.333 24c-.378 0-.694-.128-.949-.384s-.383-.572-.384-.949c-.001-.377.127-.693.384-.949s.573-.384.949-.384h21.333c.378 0 .695.128.951.384s.384.572.383.949c-.001.377-.129.694-.384.951s-.572.384-.949.383H5.334zm0-6.667c-.378 0-.694-.128-.949-.384S4.001 16.377 4 16c-.001-.377.127-.693.384-.949s.573-.384.949-.384h21.333c.378 0 .695.128.951.384s.384.572.383.949c-.001.377-.129.694-.384.951s-.572.384-.949.383H5.334zm0-6.666c-.378 0-.694-.128-.949-.384S4.001 9.711 4 9.334c-.001-.377.127-.693.384-.949s.573-.384.949-.384h21.333c.378 0 .695.128.951.384s.384.572.383.949c-.001.377-.129.694-.384.951s-.572.384-.949.383H5.334z"/>
    </symbol>
  </defs>
</svg>
